<?xml version="1.0" encoding="iso-8859-1"?>
<!-- Uploaded to: SVG Repo, www.svgrepo.com, Generator: SVG Repo Mixer Tools -->
<svg fill="#000000" height="800px" width="800px" version="1.1" id="Layer_1" xmlns="http://www.w3.org/2000/svg" xmlns:xlink="http://www.w3.org/1999/xlink" 
	 viewBox="0 0 512 512" xml:space="preserve">
<g>
	<g>
		<path d="M206.712,312.252v177.393c0,12.347,10.009,22.356,22.357,22.356c12.348,0,22.357-10.009,22.357-22.356V311.55
			C238.605,321.259,220.565,322.055,206.712,312.252z"/>
	</g>
</g>
<g>
	<g>
		<path d="M261.075,311.938v177.707c0,12.347,10.009,22.355,22.357,22.355c12.347,0,22.357-10.009,22.357-22.355V311.91
			C292.19,321.859,274.108,321.47,261.075,311.938z"/>
	</g>
</g>
<g>
	<g>
		<circle cx="256.507" cy="93.402" r="38.612"/>
	</g>
</g>
<g>
	<g>
		<path d="M384.869,86.032c-0.453,20.564,16.091,37.129,36.297,37.129c20.302,0,36.766-16.679,36.297-37.134
			C437.413,100.588,404.932,100.591,384.869,86.032z"/>
	</g>
</g>
<g>
	<g>
		<path d="M510.557,175.994c-0.115-23.317-19.181-42.288-42.5-42.288c-13.262,0-79.935,0-90.877,0
			c-15.419,0-29.969,6.67-40.116,17.766c-8.604-11.837-22.401-19.063-37.539-19.063h-4.52c-21.428,21.151-55.656,21.073-77.005,0
			h-5.523c-15.137,0-28.934,7.226-37.538,19.063c-10.148-11.096-24.7-17.766-40.118-17.766c-11.114,0-77.211,0-90.876,0
			c-23.317,0-42.383,18.969-42.501,42.287c-0.385,76.931-0.314,49.53-0.314,120.189c0,10.248,8.307,18.555,18.555,18.555
			s18.555-8.307,18.555-18.555c0-70.544-0.071-43.174,0.314-120.003c0.002-0.458,0.062-0.901,0.172-1.325
			c0.335-1.288,1.577-2.126,2.896-1.952s2.303,1.302,2.296,2.633c-0.129,23.581-0.681,133.935-0.681,295.215
			c0,12.297,9.969,22.266,22.266,22.266s22.266-9.969,22.266-22.266v-168.08h6.604v168.08c0,12.297,9.969,22.266,22.266,22.266
			s22.266-9.969,22.266-22.266c0-171.286-1.075-273.683-1.214-296.173c-0.005-0.883,0.431-1.71,1.163-2.205
			c0.732-0.494,1.663-0.59,2.48-0.253c3.872,1.595,7.125,4.577,8.982,8.465l6.108,12.796l-0.021,0.051l-12.414,30.545
			c-3.19,7.849-0.683,16.86,6.101,21.933l67.322,50.352c8.241,6.165,19.918,4.476,26.077-3.76c6.163-8.24,4.479-19.914-3.76-26.077
			l-55.807-41.739c9.804-24.124,14.864-36.828,17.705-43.7c0.481-1.164,1.718-1.826,2.953-1.58c1.235,0.245,2.125,1.329,2.125,2.589
			v35.692c48.851,36.537,46.248,34.343,49.298,37.54c3.054-3.201,0.408-0.973,49.383-37.603V182.2c0-1.259,0.89-2.343,2.126-2.589
			c1.235-0.245,2.473,0.416,2.953,1.581c2.846,6.902,7.903,19.583,17.62,43.493l-55.808,41.74
			c-6.62,4.951-9.118,13.636-6.362,21.254c4.274,11.804,18.705,16.045,28.678,8.584l67.323-50.352
			c6.784-5.073,9.29-14.086,6.101-21.933l-12.416-30.546l-0.021-0.051l6.108-12.797c1.857-3.889,5.109-6.87,8.98-8.466
			c0.817-0.336,1.748-0.242,2.48,0.252c0.732,0.494,1.168,1.322,1.163,2.205c-0.139,22.527-1.215,125.384-1.215,296.173
			c0,12.297,9.969,22.266,22.266,22.266c12.297,0,22.266-9.969,22.266-22.266v-168.08h6.605v168.08
			c0,12.297,9.969,22.266,22.266,22.266s22.266-9.969,22.266-22.266c0-159.554-0.542-269.574-0.676-294.544
			c-0.008-1.48,1.185-2.687,2.664-2.694c1.48-0.009,2.687,1.184,2.695,2.664c0,0.001,0,0.003,0,0.004
			c0.386,76.703,0.314,49.333,0.314,120.003c0,10.248,8.307,18.555,18.555,18.555s18.555-8.307,18.555-18.555
			C510.871,225.407,510.943,252.818,510.557,175.994z"/>
	</g>
</g>
<g>
	<g>
		<path d="M457.179,12.192C446.953,4.33,434.164,0,421.167,0c-13.003,0-25.795,4.33-36.018,12.195
			c-9.949,7.653-15.89,17.69-15.89,26.849c0,4.228,1.092,7.664,3,10.46c2.865,4.197,7.573,6.947,13.203,8.747v6.839
			c0.013,8.113,15.988,18.685,35.706,18.685c19.718,0,35.678-10.572,35.692-18.685v-6.836c5.626-1.798,10.334-4.542,13.202-8.733
			c1.916-2.799,3.012-6.242,3.012-10.48C473.073,29.883,467.132,19.846,457.179,12.192z M421.167,62.784
			c-3.336,0-7.067-5.392-7.067-12.609c0-7.218,3.732-12.61,7.067-12.61s7.067,5.392,7.067,12.61
			C428.234,57.392,424.503,62.784,421.167,62.784z"/>
	</g>
</g>
<g>
	<g>
		<path d="M54.537,86.028c-0.452,20.654,16.169,37.134,36.297,37.134c20.221,0,36.75-16.58,36.297-37.129
			C106.987,100.649,74.509,100.534,54.537,86.028z"/>
	</g>
</g>
<g>
	<g>
		<path d="M126.85,12.195C116.628,4.33,103.836,0,90.834,0C77.836,0,65.048,4.33,54.821,12.195
			c-9.952,7.653-15.894,17.691-15.894,26.849c0,4.237,1.096,7.681,3.012,10.48c2.868,4.19,7.577,6.934,13.202,8.732v6.836
			c0.013,8.113,15.974,18.685,35.692,18.685c19.718,0,35.692-10.572,35.706-18.685v-6.84c5.63-1.801,10.338-4.55,13.202-8.748
			c1.908-2.795,2.999-6.232,2.999-10.459C142.74,29.884,136.8,19.848,126.85,12.195z M90.834,62.784
			c-3.337,0-7.068-5.392-7.068-12.609c0-7.218,3.731-12.61,7.068-12.61c3.335,0,7.067,5.392,7.067,12.61
			C97.901,57.392,94.169,62.784,90.834,62.784z"/>
	</g>
</g>
</svg>