<?xml version="1.0" encoding="iso-8859-1"?>
<!-- Uploaded to: SVG Repo, www.svgrepo.com, Generator: SVG Repo Mixer Tools -->
<!DOCTYPE svg PUBLIC "-//W3C//DTD SVG 1.1//EN" "http://www.w3.org/Graphics/SVG/1.1/DTD/svg11.dtd">
<svg fill="#000000" version="1.1" id="Capa_1" xmlns="http://www.w3.org/2000/svg" xmlns:xlink="http://www.w3.org/1999/xlink" 
	 width="800px" height="800px" viewBox="0 0 124.888 124.887"
	 xml:space="preserve">
<g>
	<g>
		<path d="M122.148,88.708l-21.168-30.34c-0.584-0.838-1.479-1.41-2.485-1.589c-1.006-0.18-2.043,0.049-2.881,0.634L65.275,78.583
			c-0.144,0.101-0.264,0.219-0.39,0.335c0.226-1.789-0.346-3.715-1.952-5.513c-1.384-1.551-3.192-2.586-5.246-3.225
			c2.993-0.866,5.602-2.302,6.986-4.657c2.798-4.757-3.892-7.153-7.237-7.813c-6.752-1.333-13.97-1.11-20.746-0.102
			c-4.056,0.604-8.587,1.54-12.399,3.548c-1.425-0.609-2.803-1.281-4.108-2.032c-4.161-2.396-3.358-4.868-0.719-7.011
			c0.8,0.246,1.585,0.476,2.34,0.689c9.779,2.781,20.298,3.656,30.427,3.332c8.729-0.28,20.298-1.438,27.323-7.052
			c5.406-4.319-1.216-7.947-5.604-9.432c12.279-2.104,26.054-6.427,18.184-14.369c-3.508-3.54-12.622-5.829-23.755-6.767
			c-17.507-2.397-35.231-7.136-52.944-5.581c-6.014,0.527-12.743,2.299-14.971,8.56C-1.04,25.717,1.328,29.271,4.5,31.753
			c-2.005,2.846-2.412,6.148-0.638,9.933c1.766,3.761,5.319,6.266,9.235,8.065c-4.981,7.292-0.914,12.315,5.878,15.669
			c-6.257,7.76,0.615,13.244,8.557,16.566c-0.04,1.173,0.25,2.39,1.002,3.607c2.067,3.354,6.158,5.294,10.521,6.551
			c-0.38,1.543,0.352,2.992,0.985,4.354c1.154,2.481,1.804,5.036,2.175,7.746c0.534,3.896,6.433,2.231,5.903-1.629
			c-0.376-2.741-1.13-5.269-2.176-7.771c1.752-0.152,3.521-0.215,5.271-0.33c3.252-0.212,4.4-5.396,0.812-6.013
			c-0.981-0.168-7.368-1.424-12.362-2.968c0.111,0.02,0.23,0.042,0.337,0.061c6.239,1.044,13.643,1.769,19.657-0.688
			c1.708-0.696,3.064-1.739,3.979-2.977c0.034,0.699,0.249,1.397,0.679,2.016c1.218,1.745,3.62,2.172,5.366,0.954l3.044-2.123
			l-3.951,22.19l40.974,7.294l3.95-22.189l2.125,3.045c0.609,0.871,1.515,1.415,2.485,1.587c0.971,0.174,2.008-0.024,2.881-0.633
			C122.938,92.856,123.366,90.454,122.148,88.708z M58.111,49.571C48.008,50.812,37.479,50,27.539,47.89
			c2.219-0.843,4.215-1.441,5.265-1.696c11.295-2.752,23.767-3.236,35.272-1.603c1.83,0.26,3.635,0.656,5.405,1.178
			C68.998,48.143,62.919,48.981,58.111,49.571z M60.851,24.288c2.28,0.052,4.654,0.127,7.054,0.283l5.216,0.489
			c4.628,0.589,9.181,1.642,13.188,3.61c0.3,0.147,1.454,0.602,1.403,0.854c-0.052,0.252-0.719,0.548-1.324,0.883
			c-4.456,2.462-10.303,3.055-15.237,3.79c-16.302,2.431-34.034,1.299-50.062-2.308c-1.408-0.317-3.468-0.729-5.611-1.331
			c4.427-2.105,10.059-3.113,13.25-3.787C39.22,24.553,50.15,24.045,60.851,24.288z M6.214,24.536
			c-1.624-5.254,10.771-5.636,13.22-5.713c5.172-0.165,10.327,0.14,15.47,0.691c-10.646,1.52-20.216,4.229-26.098,8.201
			C7.556,26.843,6.604,25.801,6.214,24.536z M9.107,37.356c0.137-0.893,0.455-1.707,0.917-2.454
			c6.566,2.868,14.053,4.01,21.038,4.919c0.388,0.051,0.777,0.093,1.165,0.141c-5.061,0.986-10.372,2.52-14.479,5.29
			C13.032,43.537,8.555,40.965,9.107,37.356z M34.796,64.123c6.721-1.464,14.229-1.702,21.014-0.509
			c0.454,0.08,0.902,0.186,1.348,0.296c-2.837,1.145-6.912,1.217-9.198,1.313c-4.338,0.187-8.982-0.142-13.524-1.019
			C34.571,64.172,34.697,64.144,34.796,64.123z M29.871,76.923c-2.836-1.106-5.339-2.625-6.742-4.774
			c-1.073-1.645,0.004-3.119,1.88-4.346c5.633,1.796,11.78,2.809,16.063,3.264c-3.388,1.021-6.445,2.381-8.622,3.745
			C31.508,75.404,30.624,76.118,29.871,76.923z M59.006,78.112c-0.883,4.008-14.958,1.948-17.374,1.581
			c-1.345-0.205-2.936-0.454-4.616-0.785c3.105-1.582,7.361-2.275,9.82-2.689C48.397,75.956,59.56,75.592,59.006,78.112z
			 M105.595,106.305l-9.021-1.604l2.222-12.474l-12.814-2.28l-2.221,12.472l-9.021-1.605l3.951-22.19l18.175-12.682l12.682,18.175
			L105.595,106.305z"/>
		<polygon points="124.888,47.688 113.989,45.481 113.15,33.354 105.329,42.59 93.792,34.637 98.47,49.555 101.391,48.637 
			99.373,42.202 105.876,46.682 110.617,41.083 111.097,48.019 118.763,49.57 114.146,54.288 117.183,60.98 107.822,57.781 
			106.833,60.677 122.897,66.168 117.8,54.931 		"/>
	</g>
</g>
</svg>